<svg xmlns="http://www.w3.org/2000/svg" width="298.262" height="226.438" viewBox="0 0 298.262 226.438"><g transform="translate(0 0)" style="isolation:isolate"><path d="M201.474,222.7c-64.2-4.886-140.755-54.628-136.857-105.845s78.045-98.9,142.242-94.012,101.151,100.6,97.253,151.82S265.671,227.588,201.474,222.7Z" transform="translate(-57.172 -22.5)" fill="#f2f2f2"/><ellipse cx="134.009" cy="8.21" rx="134.009" ry="8.21" transform="translate(15.677 192.009)" fill="#3f3d56"/><ellipse cx="114.146" cy="5.429" rx="114.146" ry="5.429" transform="translate(35.54 194.657)" opacity="0.1"/><ellipse cx="56.197" cy="4.9" rx="56.197" ry="4.9" transform="translate(0 216.639)" fill="#3f3d56"/><ellipse cx="47.868" cy="3.24" rx="47.868" ry="3.24" transform="translate(8.33 218.22)" opacity="0.1"/><rect width="199.16" height="156.256" transform="translate(51.96 42.904)" fill="#3f3d56"/><path d="M462.5,261.819H413.369a.6.6,0,0,1,0-1.193H462.5a.6.6,0,1,1,0,1.193Z" transform="translate(-313.227 -197.561)" fill="#f2f2f2"/><path d="M587.456,286.585H510.18a.6.6,0,0,1,0-1.193h77.276a.6.6,0,1,1,0,1.193Z" transform="translate(-384.399 -215.768)" fill="#f2f2f2"/><path d="M463.4,311.351H414.269a.6.6,0,0,1,0-1.193H463.4a.6.6,0,0,1,0,1.193Z" transform="translate(-313.889 -233.975)" fill="#f2f2f2"/><path d="M665.579,311.8H616.447a.6.6,0,1,1,0-1.193h49.133a.6.6,0,0,1,0,1.193Z" transform="translate(-462.522 -234.306)" fill="#f2f2f2"/><path d="M463.851,336.116H414.719a.6.6,0,0,1,0-1.193h49.133a.6.6,0,0,1,0,1.193Z" transform="translate(-314.22 -252.181)" fill="#f2f2f2"/><path d="M464.3,360.882H415.17a.6.6,0,1,1,0-1.193H464.3a.6.6,0,0,1,0,1.193Z" transform="translate(-314.551 -270.388)" fill="#f2f2f2"/><path d="M645.829,262.269H631.757a.6.6,0,0,1,0-1.193h14.072a.6.6,0,0,1,0,1.193Z" transform="translate(-473.777 -197.892)" fill="#f2f2f2"/><path d="M645.829,336.116H631.757a.6.6,0,0,1,0-1.193h14.072a.6.6,0,0,1,0,1.193Z" transform="translate(-473.777 -252.181)" fill="#f2f2f2"/><path d="M645.829,360.432H631.757a.6.6,0,0,1,0-1.193h14.072a.6.6,0,1,1,0,1.193Z" transform="translate(-473.777 -270.057)" fill="#f2f2f2"/><path d="M734.986,360.432H720.914a.6.6,0,0,1,0-1.193h14.072a.6.6,0,1,1,0,1.193Z" transform="translate(-539.322 -270.057)" fill="#f2f2f2"/><path d="M426.99,286.585H412.918a.6.6,0,1,1,0-1.193H426.99a.6.6,0,1,1,0,1.193Z" transform="translate(-312.896 -215.768)" fill="#f2f2f2"/><path d="M462.726,626.551H413.594a.6.6,0,1,1,0-1.193h49.132a.6.6,0,1,1,0,1.193Z" transform="translate(-313.393 -465.697)" fill="#f2f2f2"/><path d="M461.825,676.082H412.693a.6.6,0,0,1,0-1.193h49.133a.6.6,0,0,1,0,1.193Z" transform="translate(-312.73 -502.11)" fill="#f2f2f2"/><path d="M462.275,700.848H413.143a.6.6,0,1,1,0-1.193h49.133a.6.6,0,1,1,0,1.193Z" transform="translate(-313.061 -520.317)" fill="#f2f2f2"/><path d="M638.85,676.532H624.778a.6.6,0,0,1,0-1.193H638.85a.6.6,0,0,1,0,1.193Z" transform="translate(-468.647 -502.441)" fill="#f2f2f2"/><path d="M638.85,700.848H624.778a.6.6,0,1,1,0-1.193H638.85a.6.6,0,1,1,0,1.193Z" transform="translate(-468.647 -520.317)" fill="#f2f2f2"/><path d="M728.006,676.532H713.934a.6.6,0,1,1,0-1.193h14.072a.6.6,0,0,1,0,1.193Z" transform="translate(-534.191 -502.441)" fill="#f2f2f2"/><path d="M587.681,651.316H510.4a.6.6,0,0,1,0-1.193h77.276a.6.6,0,1,1,0,1.193Z" transform="translate(-384.564 -483.903)" fill="#f2f2f2"/><path d="M427.215,651.316H413.143a.6.6,0,1,1,0-1.193h14.072a.6.6,0,0,1,0,1.193Z" transform="translate(-313.061 -483.903)" fill="#f2f2f2"/><path d="M587.681,726.064H510.4a.6.6,0,1,1,0-1.193h77.276a.6.6,0,1,1,0,1.193Z" transform="translate(-384.564 -538.855)" fill="#f2f2f2"/><path d="M427.215,726.064H413.143a.6.6,0,1,1,0-1.193h14.072a.6.6,0,0,1,0,1.193Z" transform="translate(-313.061 -538.855)" fill="#f2f2f2"/><path d="M466.095,401.13l-19.081,18.842,19.081,18.842,4.293-4.293-14.43-14.43,14.549-14.549Z" transform="translate(-328.627 -294.895)" fill="#006c54"/><path d="M613.079,401.13l19.081,18.842-19.081,18.842-4.293-4.293,14.43-14.43-14.549-14.549Z" transform="translate(-447.468 -294.895)" fill="#006c54"/><circle cx="2.384" cy="2.384" r="2.384" transform="translate(54.873 44.493)" fill="#006c54"/><circle cx="2.384" cy="2.384" r="2.384" transform="translate(61.229 44.493)" fill="#006c54"/><circle cx="2.384" cy="2.384" r="2.384" transform="translate(67.586 44.493)" fill="#006c54"/><rect width="199.16" height="0.795" transform="translate(51.96 50.849)" opacity="0.1"/><path d="M1038.6,523.431c0,16.889-10.04,22.786-22.426,22.786s-22.426-5.9-22.426-22.786,22.426-38.375,22.426-38.375S1038.6,506.541,1038.6,523.431Z" transform="translate(-740.337 -362.553)" fill="#f2f2f2"/><path d="M1013.412,521.133l.23-14.135,9.558-17.487-9.521,15.269.1-6.356,6.587-12.651-6.56,10.969h0l.185-11.431,7.055-10.072-7.026,8.275.117-20.96-.728,27.747.058-1.145-7.172-10.978,7.058,13.175-.67,12.766-.019-.339L1004.4,492.23l8.242,12.75-.082,1.6-.016.024.008.131-1.695,32.389h2.264l.27-16.729,8.223-12.719Z" transform="translate(-738.395 -340.053)" fill="#3f3d56"/><path d="M138.159,769.274a11.424,11.424,0,0,1-2.166.927c-1.345.367-2.783.233-4.141.546a1.7,1.7,0,0,0-1.339.94,1.974,1.974,0,0,0,.147,1.224c1.5,4.4,2.406,9.075,4.8,13.062a19.768,19.768,0,0,0,3.706,4.5,3.532,3.532,0,0,0,1.89,1.048,1.92,1.92,0,0,0,1.952-2.7c-.215-.477-.614-.846-.871-1.3a4.968,4.968,0,0,1-.482-1.851,12.036,12.036,0,0,1,.188-5.632,18.931,18.931,0,0,1,1.909-3.3,5.755,5.755,0,0,0,1.075-3.587,6.229,6.229,0,0,0-.967-2.4c-.445-.748-1.325-2.757-2.22-3.006C140.71,767.493,138.969,768.859,138.159,769.274Z" transform="translate(-105.684 -570.355)" fill="#2f2e41"/><path d="M246.962,816.466a3.712,3.712,0,0,1-.176,1.257c-.28.74-.975,1.246-1.334,1.951a4.31,4.31,0,0,0,.058,3.214,3.293,3.293,0,0,0,1.036,1.749,3.415,3.415,0,0,0,1.577.505c4.777.661,9.629.282,14.449.42a4.932,4.932,0,0,0,2.576-.373,1.624,1.624,0,0,0,.719-2.216c-.468-.635-1.394-.629-2.183-.667a8.982,8.982,0,0,1-5.539-2.282,4,4,0,0,1-.777-.894,5.5,5.5,0,0,1-.406-.932,41.531,41.531,0,0,0-2.406-5.328,2.823,2.823,0,0,0-1.034-1.238,2.734,2.734,0,0,0-1.123-.245c-1.2-.078-4.312-.487-5.241.448C246.3,812.7,246.981,815.37,246.962,816.466Z" transform="translate(-190.006 -602.343)" fill="#2f2e41"/><circle cx="7.674" cy="7.674" r="7.674" transform="translate(56.675 92.097)" fill="#fbbebe"/><path d="M247.166,413.266a5.768,5.768,0,0,1-2.357,3.027l10.613,2.165a11.244,11.244,0,0,1-.149-4.732,2.728,2.728,0,0,0,.063-1.168c-.2-.77-1.066-1.141-1.842-1.317a24.613,24.613,0,0,1-5.45-1.534C247.494,410.648,247.572,412.18,247.166,413.266Z" transform="translate(-189.747 -307.159)" fill="#fbbebe"/><path d="M217.788,421.678a8.3,8.3,0,0,1,7.234.189,16.373,16.373,0,0,1,3.594,2.867c1.02.984,2.109,2.111,2.181,3.527a9.882,9.882,0,0,1-.287,2.035,6.824,6.824,0,0,0,3.65,7.01,9.287,9.287,0,0,1,1.03,4.744c.049,6.207-1.909,12.49-.511,18.538.328,1.42.837,2.8,1.121,4.225.367,1.851.349,3.755.541,5.633a25.229,25.229,0,0,0,1.354,5.958,2.475,2.475,0,0,1-2.289.957,6.465,6.465,0,0,1-2.448-.83c-3.74-1.914-7.166-4.438-11.04-6.065-2.563-1.076-5.293-1.747-7.78-2.99s-4.8-3.216-5.559-5.889a13.784,13.784,0,0,1-.367-3.576c-.076-5.062-.146-10.179.956-15.121.972-4.358,2.845-8.526,3.253-12.972.133-1.447.136-3,.944-4.2C214.509,424.007,216.976,423.565,217.788,421.678Z" transform="translate(-162.815 -315.417)" fill="#2f2e41"/><path d="M240.27,367.137a1.983,1.983,0,0,1,2.047-.5c.722.174,1.388.547,2.118.688a1.238,1.238,0,0,0,.991-.139,1.442,1.442,0,0,0,.428-.946,18.053,18.053,0,0,0,.178-4.6,1.363,1.363,0,0,1,.042-.646c.181-.435.732-.539,1.182-.678a3.527,3.527,0,0,0,2.387-3.611,1.436,1.436,0,0,0-.439-.991,1.8,1.8,0,0,0-1.148-.272q-3.094-.025-6.188,0a4.494,4.494,0,0,0-2.227.406,10.822,10.822,0,0,0-1.293,1.089c-1.146.925-2.7,1.113-4.089,1.587a4.054,4.054,0,0,0-1.792,1.069,1.888,1.888,0,0,0-.4,1.958,6.948,6.948,0,0,0,.5.769c.822,1.315.275,3.02.4,4.566.153,1.93,3.01,5.062,4.947,5.518C241.042,373.144,239.235,368.4,240.27,367.137Z" transform="translate(-180.286 -267.258)" fill="#2f2e41"/><path d="M242.919,681.831a22.9,22.9,0,0,1,.383,4.245c-.094,1.985-.81,3.9-.942,5.879-.1,1.481.13,2.977-.076,4.447-.132.941-.439,1.848-.629,2.779a11.493,11.493,0,0,0,1.847,8.81,1.442,1.442,0,0,0,.536.519,1.514,1.514,0,0,0,.664.088,47.662,47.662,0,0,0,6.666-.606.639.639,0,0,0,.428-.189.6.6,0,0,0,.093-.253c.409-2.1-.524-4.209-.761-6.337a19.669,19.669,0,0,1,.833-6.771,30.063,30.063,0,0,1,.918-3.238c.262-.714.577-1.409.8-2.135a16.275,16.275,0,0,0,.583-3.5q.236-2.8.25-5.614a23.559,23.559,0,0,0-.441-5.3,28.248,28.248,0,0,0-2.525-6.285,3.982,3.982,0,0,0-1.488.707A33.189,33.189,0,0,1,246,671.328c-.945.439-2.787.75-3.386,1.665s-.21,2.741-.165,3.736Q242.564,679.289,242.919,681.831Z" transform="translate(-187.267 -497.321)" fill="#2f2e41"/><path d="M242.919,681.831a22.9,22.9,0,0,1,.383,4.245c-.094,1.985-.81,3.9-.942,5.879-.1,1.481.13,2.977-.076,4.447-.132.941-.439,1.848-.629,2.779a11.493,11.493,0,0,0,1.847,8.81,1.442,1.442,0,0,0,.536.519,1.514,1.514,0,0,0,.664.088,47.662,47.662,0,0,0,6.666-.606.639.639,0,0,0,.428-.189.6.6,0,0,0,.093-.253c.409-2.1-.524-4.209-.761-6.337a19.669,19.669,0,0,1,.833-6.771,30.063,30.063,0,0,1,.918-3.238c.262-.714.577-1.409.8-2.135a16.275,16.275,0,0,0,.583-3.5q.236-2.8.25-5.614a23.559,23.559,0,0,0-.441-5.3,28.248,28.248,0,0,0-2.525-6.285,3.982,3.982,0,0,0-1.488.707A33.189,33.189,0,0,1,246,671.328c-.945.439-2.787.75-3.386,1.665s-.21,2.741-.165,3.736Q242.564,679.289,242.919,681.831Z" transform="translate(-187.267 -497.321)" opacity="0.1"/><path d="M179.894,605.518c-1.019,2.744.479,5.708,1.78,8.33,3.206,6.458,5.433,13.35,7.647,20.212a2.478,2.478,0,0,1,.147,1.582,2.072,2.072,0,0,1-.747.886c-1.527,1.16-3.471,1.573-5.29,2.18a23.885,23.885,0,0,0-5.017,2.352c-1.318.817-2.553,1.76-3.785,2.7l-3.923,3a2.622,2.622,0,0,0-.656.635,2.564,2.564,0,0,0-.035,2.047,34.806,34.806,0,0,0,1.921,5.242,1.83,1.83,0,0,0,.7.913c.612.329,1.361-.107,1.829-.622s.872-1.154,1.531-1.375,1.383.047,2.07-.05c1.112-.156,1.85-1.18,2.652-1.967,3.275-3.213,8.742-2.98,12.345-5.82a15.68,15.68,0,0,1,1.65-1.289c.609-.36,1.3-.558,1.932-.876a8.189,8.189,0,0,0,3.777-5.021c.647-2.052.832-4.218,1.3-6.319a27.476,27.476,0,0,0,.664-3.268,17.5,17.5,0,0,0-.067-3.09l-1.3-16.08c-.106-1.309-.212-2.62-.417-3.917-3.86.138-7.718.293-11.581.339C185.941,606.274,182.811,606.489,179.894,605.518Z" transform="translate(-134.617 -451.112)" fill="#2f2e41"/><path d="M201.471,602.214a2.062,2.062,0,0,0,2.676.363c.878-.462,1.56-1.237,2.439-1.7a7.926,7.926,0,0,1,3.913-.554,25.44,25.44,0,0,1,6.273.7c2.1.6,4.142,1.749,6.312,1.519a1.3,1.3,0,0,0,1-.468,1.468,1.468,0,0,0,.164-.751l.071-1.9a1.712,1.712,0,0,0-.151-.96,1.611,1.611,0,0,0-.719-.551c-3.089-1.5-6.612-1.774-10.041-1.891q-2.615-.09-5.233-.074a19.067,19.067,0,0,0-4.7.19C201.542,596.679,200.491,600.638,201.471,602.214Z" transform="translate(-157.613 -444.046)" fill="#2f2e41"/><path d="M219.675,424.51c-4.047-.036-7.715-2.707-11.762-2.772a3.049,3.049,0,0,0-1.428.246,5.317,5.317,0,0,0-1.363,1.3c-1.2,1.3-2.929,1.988-4.159,3.253a4.824,4.824,0,0,0-1.339,4.543,3.376,3.376,0,0,0,3.782,2.427,9.746,9.746,0,0,1,3.8-5.159,19.3,19.3,0,0,1,2.968-1.558c1.819-.824,3.853-1.664,5.752-1.046a8.114,8.114,0,0,1,1.962,1.07l3.166,2.127A22.042,22.042,0,0,0,219.675,424.51Z" transform="translate(-156.421 -315.998)" fill="#006c54"/><path d="M196.92,441.24c-.537.67.237,1.642.118,2.493-.079.565-.544,1-.738,1.534a8.222,8.222,0,0,0-.17,1.759,7.545,7.545,0,0,1-.338,1.253,22.5,22.5,0,0,0-.711,3.715l-.708,5.29a20.043,20.043,0,0,0-.224,2.4,7.178,7.178,0,0,1-.12,1.8,13.266,13.266,0,0,1-.738,1.636,1.917,1.917,0,0,0-.026,1.728,3.02,3.02,0,0,0-.632,3.77,2.092,2.092,0,0,1,.326.6,1.541,1.541,0,0,1-.143.885l-.716,1.909c-.183.489-.241,1.232.268,1.344a4.5,4.5,0,0,0-.967,1.527,1.818,1.818,0,0,0,.258,1.723,2.2,2.2,0,0,1,.449.545,1.449,1.449,0,0,1-.052.859,3.153,3.153,0,0,0,.39,2.472,2.217,2.217,0,0,0,2.23.956c1.433-.323,2.721-.833,4.165-.568a74.406,74.406,0,0,1,9.245,2.106c3.439,1.1,6.768,2.708,10.362,3.046a1.006,1.006,0,0,0,.693-.108,1.041,1.041,0,0,0,.32-.659l1.111-5.208a53.6,53.6,0,0,0,1.021-5.834c.126-1.266.162-2.54.2-3.812l.286-10.125a10.116,10.116,0,0,0-.583-4.4l-1.647-5.257c-.94-3-3.1-5.66-3.863-8.708-.486-1.929-.845-4-2.147-5.5-1.857-2.144-5.07-2.477-7.883-2.109a9.418,9.418,0,0,0-3.651,1.113,11.963,11.963,0,0,0-3.113,3.135C198.444,439.51,197.684,440.287,196.92,441.24Z" transform="translate(-150.401 -325.141)" fill="#006c54"/><path d="M236.618,555.092c.232,1,.718,1.92,1.016,2.9.5,1.644.457,3.415.955,5.06.209.69.512,1.353.662,2.059a8.53,8.53,0,0,1-.8,4.9,19.159,19.159,0,0,0-1.613,4.762,3.648,3.648,0,0,0,.969,3.266,4.772,4.772,0,0,0,3.533.633,3.711,3.711,0,0,0,1.282-.267,3.461,3.461,0,0,0,1.551-2.565,38.066,38.066,0,0,0,.311-10.381l-.558-9.067a21.222,21.222,0,0,0-.76-5.2,4.962,4.962,0,0,0-1.094-2.231,7.36,7.36,0,0,0-2.81-.435C236.063,548.377,236.1,552.849,236.618,555.092Z" transform="translate(-183.533 -409.212)" fill="#fbbebe"/><path d="M232.947,446.389a2.205,2.205,0,0,0-2.111.187,6.508,6.508,0,0,0-1.582,1.536c-1.414,1.726-2.911,3.706-2.7,5.928a15.035,15.035,0,0,0,.614,2.429c.948,3.543-.1,7.291.02,10.957a34.306,34.306,0,0,0,.99,6.271c.094.422.244.911.652,1.053a1.417,1.417,0,0,0,.942-.146,7.514,7.514,0,0,1,6.876.867c.759-.4.474-1.685.3-2.528-.505-2.5.181-5.089,1.014-7.5s1.83-4.828,1.968-7.38c.156-2.891-.8-5.713-1.748-8.449a2.717,2.717,0,0,0-2.289-2.266A15.791,15.791,0,0,1,232.947,446.389Z" transform="translate(-176.312 -333.985)" fill="#2f2e41"/></g></svg>