<svg xmlns="http://www.w3.org/2000/svg" width="302" height="215.953" viewBox="0 0 302 215.953"><g transform="translate(0 0.003)"><path d="M774.042,299.942c-.565-1.452.242-2.178.565-3.469s-.726-5.325-.726-5.325-3.388-13.957-4.437-16.7a5.043,5.043,0,0,0-2.372-2.5c-.065-.356-.16-.586-.29-.651a22.535,22.535,0,0,0-4.814-1.763,7.873,7.873,0,0,0-1.026-1.387,3.279,3.279,0,0,0,.366-1.7c-.1-1.522-1.252-2.886-1.1-4.4.114-1.151.955-2.1,1.28-3.207a3.772,3.772,0,0,0-.429-2.974l.716.762a2.675,2.675,0,0,0-.2-3.232c-.756-.835-2.019-1.148-2.606-2.109-.6-.988-.279-2.33-.849-3.337-1.4-2.467-4.968-.718-7.108-1.579a5.9,5.9,0,0,0-2.537-.715,9.911,9.911,0,0,0-2.475.462,5.229,5.229,0,0,0-2.836,2.033,1.756,1.756,0,0,1,.222-.212,1.146,1.146,0,0,1,1.7.227,1,1,0,0,1,.08.479,2.251,2.251,0,0,1-1.3,1.623,4.9,4.9,0,0,0-1.742,1.261c-.675.985-.278,2.307-.278,3.5a5.076,5.076,0,0,1-1.924,3.942l2.277-.931a17.2,17.2,0,0,0-2.1,6.165l3.078-2.543a13.534,13.534,0,0,0-2.022,6.008l2.471-2.532a1.25,1.25,0,0,1,.163.65l-.258.994a6.455,6.455,0,0,1-.3.577c-.4.683-.809,1.523-.437,2.22h0a4.876,4.876,0,0,1-2.3,3.275,3.824,3.824,0,0,0,3.635-1.735,3.248,3.248,0,0,0,.386.586l.126.158-.363.242-.973.649s-6.373,1.291-5.97,3.711l.059.352-1.834,3.117L732.9,288.97s-1.372,2.9-1.13,4.114,0,1.694,0,3.872-1.049,3.066,0,4.84,4.2,6.938,4.2,6.938l.691.518a3.229,3.229,0,0,0,.035.934c.645,3.227,6.7,34.126,6.7,34.126s-3.066,24.445,3.146,25.977c.779.192,1.544.367,2.287.522l.94,6.174-.565,7.826s-4.276,9.681,3.55,10.246,4.276-8.39,4.276-8.39a4.253,4.253,0,0,0,.484-2.5c-.08-.718-.751-4.455-1.41-8.05,2.97-.356,2.414-3.508,2.018-4.894a.8.8,0,0,0,.36-.449,13.765,13.765,0,0,0-.5-3.362c-.308-1.764-.833-4.619-1.192-6.553l1.93.314,8.148-47.76s.054-.76.029-1.872a30.27,30.27,0,0,1,3.44-1.516c2.662-1.049,3.711-4.921,4.6-6.535S774.607,301.394,774.042,299.942Zm-28.931-30.409a1.725,1.725,0,0,1,.892-.3c-.069.375-.714.485-1.255.681a1.6,1.6,0,0,1,.363-.379Zm-4.066,24.035c.654,1.074-.53,3.984-1.6,6.293-.611-.527-1.249-.361-.5-1.856a7.591,7.591,0,0,0,.887-3.066,2.953,2.953,0,0,1,.89-2.1,4.232,4.232,0,0,0,.321.732Zm-2.448,9.268c.37-.151.93-.382,1.686-.639-.362.476-.776,1.042-1.192,1.661a1.249,1.249,0,0,1-.494-1.022Zm26.167,1.059c-.49-.521-.887-.987-1.213-1.4q.913.24,1.859.517a2.21,2.21,0,0,0,.94-.063c.028.558.028,1.353.028,1.353l-.884.612a5.184,5.184,0,0,0-.73-1.015Zm2.5-2.8-.029.026a5.345,5.345,0,0,0-.216-.939,35.327,35.327,0,0,1-.961-7.151l1.526,5.134s.081,2.582-.32,2.93Z" transform="translate(-538.965 -202.013)" fill="#006c54" opacity="0.26"/><path d="M636.232,257.884s-8.277-14.226-8.535-15.778-4.4-4.4-4.4-4.4c-1.414-1.414-3.734-1.861-6.175-1.838.919-.761-2.363-1.272-2.619-1.783s-1.035-.517-2.069-1.293-3.617-.129-3.617-.129a9.533,9.533,0,0,1-.8-2.578,7.212,7.212,0,0,0,1.7-4.664c0-.019,0-.037,0-.055.066.1.132.206.2.312.484-2.9,1.34-5.315-.29-7.962a8.927,8.927,0,0,0-5.078-3.882L603,215.077l.6-1.449a8.216,8.216,0,0,0-1.534-.089l-1.4,1.8.578-1.735a8.842,8.842,0,0,0-6.1,3.628,7.835,7.835,0,0,0,.09,8.711c.006-.018.011-.036.016-.054a7.24,7.24,0,0,0,3.7,5.862l.439,3.514h0a2.409,2.409,0,0,1-1.44.635c-.776,0-1.552,2.069-1.552,2.069s-.44.222-.914,1.27c-1.221.831-4.946,3.442-6.327,5.267-.817.4-1.7,1.3-1.553,3.292.259,3.621,0,20.433,0,20.433s-2.328,14.226-1.552,15.26-.259,4.4-.259,4.4l.776.172v.862s-2.334,10.819,1.293,10.346c5.949-.776,1.552-9.57,1.552-9.57v-1.006l1.035.23s.517-3.621,1.552-3.88c.36-.09.782-1.057,1.18-2.279l.372,3.055,1.618-.36.451,1.653a2.231,2.231,0,0,0,.348.157l-.348,1.912a13.414,13.414,0,0,0,0,3.362c.13.652,4.932,14.593,9.659,28.253l-.089,3.3s-2.328,2.586-1.811,4.4-1.293,16.812-1.293,16.812l-1.552,7.5.391.12-.358,1.314a2.608,2.608,0,0,0-.808.635c-2.069,2.328-4.656,9.053-4.656,9.053s-4.656,6.984,2.587,6.725,7.759-2.845,7.759-2.845,1.035-6.725,1.035-6.984-.517-2.917-.517-2.917l-.2-.222.14-3.227,1.354.417s1.293-6.725,2.328-7.5c.362-.271,1.324-3.292,2.422-7.172,1.123,3.233,2.21,14.41,2.563,15.425a3.669,3.669,0,0,0-.329.542,62.845,62.845,0,0,1-3.88,6.466s-8.277,4.914,0,6.208c0,0,4.656.259,6.984-1.293s8.535-3.88,8.535-4.4-1.552-8.122-3.1-7.294h0l-1.04-2.391,1.04-.4-6.548-29.393a14.853,14.853,0,0,0,.341-1.9c0-1.354,3.349-27.728,4.2-34.418,3.751,1.063,7.179-6.707,7.179-6.707l.85-1.53,1.219.755s1.035-2.587,2.586-2.845,4.4-13.967,4.4-15.778a8.418,8.418,0,0,0-.776-3.362Zm-12.051,20.265a6.972,6.972,0,0,0-.881-1.125,32.034,32.034,0,0,0,1.552-5.432c.517-2.845-.776-12.156-.776-12.156l-.023-.632c1.27,1.666,2.868,3.888,2.868,4.512a1.94,1.94,0,0,0,.776,1.552l-1.552,5.432a32.144,32.144,0,0,0-1.293,3.88,13.207,13.207,0,0,0-.259,2.328l.367.227Z" transform="translate(-439.267 -180.005)" fill="#006c54" opacity="0.5"/><path d="M273.149,276.641l1.38-.311-5.69-16.036-12.286-4.526s-.047.052-.134.142a6.509,6.509,0,0,1-1.679-3.644,7.24,7.24,0,0,0,3.375-10.633c1.012-.243,1.374-1.161,1.714-2.257a4.528,4.528,0,0,0-.642-.14l.478-1.071-.839-.075.215-1-1.07.739a2.187,2.187,0,0,0-.365-2.088,4.177,4.177,0,0,0-1.79-1.262,7.988,7.988,0,0,0-8.2,1.433l-.077-.3a10.4,10.4,0,0,0-3.973,6.885c-.343,2.7.954,5.447,2.639,7.583-.014-.093-.029-.186-.045-.279q.109.151.226.3l.207,7.873-.519.445s-8.706,3.939-9.045,8.642v0c-.522,2.29-.781,14.188-.781,14.188h.716l-.716,4.656-4.656,18.105s-5.949,7.759-.776,9.311c3.215.964,4.132-2.765,4.366-5.728a1.819,1.819,0,0,0,1.842,1.331l.268.022c-2.446,6.321-.785,26.878-.785,26.878-1.293,2.586,13.967,20.433,13.967,20.433l.919-.49.2.4c-.511.049-.859.092-.859.092v8.018s-2.328,8.018.776,9.57a2.211,2.211,0,0,0,2.441-.543c-.153,2.474-.372,6.167-.372,7.009,0,1.293,3.362,3.621,3.362,3.621s.776,2.845,6.984,2.845,1.552-7.5,1.552-7.5l-3.362-7.5s-.252.123-1.013-.5l.273-3,1.516.134,2.069-30.262s1.811-26.9,2.069-31.038a28.8,28.8,0,0,0-.094-3.979l7.594-15.679Zm-5.6,10.035-.776,2.7V283.4Zm-32.291,19.181c.006-.948-.041-1.593-.041-1.593l5.057-10.113-.142,3.13S236.079,302.4,235.255,305.857Zm11.857,29.186,4.914-17.33,2.845,20.951-.2,7.617a12.143,12.143,0,0,1-.831-2.185C253.061,340.993,247.113,335.044,247.113,335.044Z" transform="translate(-194.595 -193.974)" fill="#006c54" opacity="0.26"/><path d="M354.826,365.934c-2.423-1-7.128-3.136-7.7-4.277s-3.421-9.979-3.421-9.979l-.734.053c-.095-4.015-.5-19.576-1.119-21.437,0,0,2.994-24.662-2.994-34.5l-1.079-4.358a24.325,24.325,0,0,0,.081-6.476c-.285-.855,3.279-3.564,2.281-5.275s-3.706-7.555-3.706-7.555.285-3.706-3.564-7.128c0,0-1.125-6.368-6.193-6.463-.685-1.2-1.644-3.1-1.362-3.944.3-.906,1.457-3.732,2.11-5.314a6.829,6.829,0,0,0,1-.554,12.55,12.55,0,0,0-.869-22.785,3.847,3.847,0,1,0-7.444-1.381A3.845,3.845,0,0,1,324.4,219.3a4.915,4.915,0,0,0-3.963,6.835A12.121,12.121,0,0,0,313.2,237.51a12.247,12.247,0,0,0,6.336,10.962,7.28,7.28,0,0,1-2.584,5.851c-1.122-.513-2.68-1.076-3.68-.821-.517-.4-1.3-.536-2.358.525-2.138,2.138-3.992,7.7-3.992,11.119s.428,23.237.428,23.237-2.281.855-.713,2.138a1.849,1.849,0,0,0,1.152.428l1.557,11.547s-1,11.119,2.851,11.262a1.523,1.523,0,0,0,.862-.211l-2.857,12.9a42.958,42.958,0,0,0-11.69,12.687A67.668,67.668,0,0,0,293.9,347.7l-.94-.583-3.279,6.272s-7.27,4.419-5.7,7.7,2.994,4.134,2.994,4.134l1-.428,1.853,3.421s4.847,6.985,12.687,3.421a2.865,2.865,0,0,0,0-3.421c-1.283-1.853-4.562-5.845-4.562-5.845l2.138-10.834-.442-.274,13.558-16.4s3.992-2.423,5.417-4.562,10.264-24.234,10.264-24.234l4.989,23.094s-.285,8.411,1,13.828a58.7,58.7,0,0,1,1.364,9.24l-.366.027.855,6.415s-3.706,9.124-1.14,9.836a37.6,37.6,0,0,0,5.56,1l.285-1s10.977,5.987,14.968,1.568C356.394,370.068,357.25,366.932,354.826,365.934Zm-39.06-69.995c.428.428.285,2.423.285,2.423l-.855,5.56-.854,3.856a41.413,41.413,0,0,0-.714-5.424l-.395-10.654a.822.822,0,0,0,.252.105c.285,0,.143-2.423.143-2.423s.166-.433.374-1.116c.554,1.659,1.231,2.742,2.049,2.969l.143,1.853s-1.853.855-.143.855a1.349,1.349,0,0,0,.294-.044l-.151.756S315.338,295.511,315.766,295.939Z" transform="translate(-232.314 -183.699)" fill="#006c54" opacity="0.5"/><ellipse cx="114.594" cy="1.889" rx="114.594" ry="1.889" transform="translate(5.481 185.098)" fill="#3f3d56"/><ellipse cx="126.053" cy="4.88" rx="126.053" ry="4.88" transform="translate(34.129 186.987)" fill="#3f3d56"/><ellipse cx="61.862" cy="4.88" rx="61.862" ry="4.88" transform="translate(75.056 194.227)" fill="#3f3d56"/><ellipse cx="27.547" cy="2.519" rx="27.547" ry="2.519" transform="translate(198.78 202.413)" fill="#3f3d56"/><ellipse cx="13.065" cy="2.519" rx="13.065" ry="2.519" transform="translate(175.483 210.913)" fill="#3f3d56"/><ellipse cx="13.065" cy="2.519" rx="13.065" ry="2.519" transform="translate(69.074 200.209)" fill="#3f3d56"/><path d="M465.909,551.4l1.259,8.815,6.3-.63-.63-9.13Z" transform="translate(-319.232 -377.163)" fill="#ffb8b8"/><path d="M354.465,551.4l-1.259,8.815-6.3-.63.63-9.13Z" transform="translate(-237.695 -377.163)" fill="#ffb8b8"/><path d="M452.278,370.031a23.227,23.227,0,0,0-4.408,17c1.259,10.389,3.463,34,3.463,34l1.574,41.871,10.074-.63,1.574-35.575,5.037-28.649L483.13,431.42s6.611,31.167,6.926,31.167,9.445-.944,9.445-.944l-4.407-36.834s-6.926-53.519-11.019-54.464S452.278,370.031,452.278,370.031Z" transform="translate(-344.638 -287.092)" fill="#2f2e41"/><path d="M592.813,679.2s-5.667-3.778-7.87.63-.315,7.556-.315,7.556,1.889,1.259.944,2.519-1.259,9.445,6.926,8.185,4.093-9.759,4.093-9.759Z" transform="translate(-437.951 -498.036)" fill="#2f2e41"/><path d="M454.819,679.2s5.667-3.778,7.87.63.315,7.556.315,7.556-1.889,1.259-.944,2.519,1.259,9.445-6.926,8.185-4.093-9.759-4.093-9.759Z" transform="translate(-346.235 -498.036)" fill="#2f2e41"/><path d="M486.768,172.552s2.833,7.871.63,12.278,3.463,9.445,3.463,9.445,14.8-7.556,12.908-11.334-5.037-8.815-4.407-11.963Z" transform="translate(-371.415 -150.846)" fill="#ffb8b8"/><circle cx="10.074" cy="10.074" r="10.074" transform="translate(110.788 4.549)" fill="#ffb8b8"/><path d="M471.675,205.845s10.108,8.411,17.647-3.507l7.853,4.452,4.093,47.853s-22.982,13.222-34,1.889l1.574-44.39Z" transform="translate(-358.054 -172.332)" fill="#d0cde1"/><path d="M336.676,91.488l-14.193,9.434,5.037,23.3-6.611,36.2,10.7-16.056Z" transform="translate(-219.88 -62.688)" fill="#006c54"/><path d="M522.856,190.169l3.486,2.3,14.167,5.037-2.2,39.038,5.982,25.186-8.5,4.407s-1.574-11.963-11.333-17.945S520.629,191.961,522.856,190.169Z" transform="translate(-393.516 -163.995)" fill="#006c54"/><path d="M448.046,384.478l4.093,2.833s-5.195,5.509-6.139,4.565a2.581,2.581,0,0,1-.787-2.046l-.944-2.2Z" transform="translate(-342.295 -297.132)" fill="#ffb8b8"/><path d="M532.5,382.532l-1.391,2.187s-4.093,1.889-3.148,3.148,8.815,4.093,10.389,1.259l1.574-2.833Z" transform="translate(-399.542 -295.798)" fill="#ffb8b8"/><path d="M438.318,227.478l-2.2.315-3.62,23.454s-1.417,4.25.157,14.324,3.133,16.634,3.133,16.634l6.941-4.986-3.148-8.185,4.093-29.908Z" transform="translate(-333.826 -189.558)" fill="#006c54"/><path d="M549.342,211.478l5.037.63s5.667,5.982,6.611,12.278.63,24.241.63,24.241l-14.482,22.982-7.87-5.667,11.019-19.519-5.352-23.3Z" transform="translate(-407.387 -178.595)" fill="#006c54"/><path d="M488.939,112.533a11.769,11.769,0,0,0-6.695-5.118l-2.047,1.637.8-1.91a10.834,10.834,0,0,0-2.023-.117l-1.842,2.368.762-2.287a11.657,11.657,0,0,0-8.041,4.783c-2.344,3.38-2.739,8.08-.434,11.486.633-1.945,1.4-3.77,2.034-5.715a5.757,5.757,0,0,0,1.5.007l.77-1.8.215,1.721c2.386-.208,5.926-.664,8.189-1.083l-.22-1.32,1.316,1.1c.693-.16,1.1-.3,1.071-.415,1.683,2.713,3.35,4.445,5.033,7.158C489.961,119.2,491.088,116.024,488.939,112.533Z" transform="translate(-358.47 -107.022)" fill="#2f2e41"/><ellipse cx="0.682" cy="1.364" rx="0.682" ry="1.364" transform="translate(129.229 12.942)" fill="#ffb8b8"/><path d="M821.7,669.768c.29,9.935-5.515,13.576-12.8,13.789q-.254.007-.505.009-.507,0-1-.017c-6.589-.273-11.8-3.771-12.074-13.011-.279-9.562,11.589-21.986,12.48-22.9h0l.051-.053S821.414,659.834,821.7,669.768Z" transform="translate(-582.827 -477.404)" fill="#006c54"/><path d="M824.19,682.055l4.628-6.882L824.2,682.8l.01.774q-.507,0-1-.017l.229-9.954-.006-.077.008-.015.022-.941-5.068-7.358,5.062,6.654.018.2.173-7.521-4.377-7.629,4.39,6.307-.046-15.581v0l.291,12.28,3.99-4.988-3.976,6.046L824,667.7l3.671-6.566-3.658,7.555.049,3.741,5.339-9.146-5.323,10.451Z" transform="translate(-598.637 -477.408)" fill="#3f3d56"/><path d="M285.7,622.768c.29,9.935-5.515,13.576-12.8,13.789q-.254.007-.505.009-.507,0-1-.017c-6.589-.273-11.8-3.771-12.074-13.011-.279-9.562,11.589-21.986,12.48-22.9h0l.051-.052S285.414,612.834,285.7,622.768Z" transform="translate(-215.57 -445.201)" fill="#006c54"/><path d="M288.191,635.055l4.628-6.882L288.2,635.8l.01.774q-.507,0-1-.017l.23-9.954-.006-.077.008-.015.022-.941-5.068-7.358,5.062,6.654.018.2.173-7.521-4.377-7.629,4.39,6.307-.046-15.581v0l.291,12.28,3.989-4.988-3.976,6.046L288,620.7l3.671-6.566-3.658,7.555.048,3.741,5.339-9.146-5.323,10.451Z" transform="translate(-231.381 -445.204)" fill="#3f3d56"/><path d="M709.943,734.2c.17,5.832-3.237,7.969-7.513,8.094q-.149,0-.3.005-.3,0-.589-.01c-3.867-.161-6.929-2.213-7.087-7.637-.164-5.613,6.8-12.905,7.325-13.445h0l.03-.031S709.773,728.373,709.943,734.2Z" transform="translate(-513.718 -527.834)" fill="#006c54"/><path d="M711.4,741.416l2.716-4.04-2.711,4.474.006.455q-.3,0-.589-.01l.135-5.843,0-.045.005-.009.013-.552L708,731.527l2.971,3.906.01.117.1-4.415-2.569-4.478,2.577,3.7-.027-9.146v0l.171,7.208,2.342-2.928-2.334,3.549.051,3.949,2.155-3.854-2.147,4.434.029,2.2,3.134-5.368-3.124,6.134Z" transform="translate(-522.998 -527.836)" fill="#3f3d56"/><path d="M1079.55,158.021l.028-.087c0,.013-.009.025-.013.037Z" transform="translate(-777.578 -141.908)" fill="#2f2e41"/><path d="M876.219,310.829l23.318-34.676-23.27,38.407.049,3.9q-2.554.019-5.057-.085l1.157-50.157-.032-.387.043-.075.111-4.74L847,225.943l25.506,33.528.09,1,.874-37.9-22.056-38.439,22.119,31.781-.231-78.51v-.261l.008.257,1.464,61.876,20.1-25.134L874.84,204.613l.439,33.9,18.5-33.082-18.43,38.065.244,18.848,26.9-46.083-26.819,52.658Z" transform="translate(-618.239 -127.667)" fill="#3f3d56"/><path d="M140.241,427.342l15.867-23.6-15.835,26.135.033,2.655q-1.738.013-3.441-.058l.787-34.13-.022-.263.029-.051.075-3.225L120.359,369.58l17.356,22.815.062.682.594-25.787-15.009-26.156,15.051,21.626-.157-53.424v-.178l.005.175,1,42.1,13.679-17.1L139.3,355.065l.3,23.066,12.587-22.511-12.541,25.9.166,12.826,18.305-31.358-18.25,35.832Z" transform="translate(-120.359 -245.524)" fill="#3f3d56"/></g></svg>