<svg xmlns="http://www.w3.org/2000/svg" width="302" height="202.588" viewBox="0 0 302 202.588"><g transform="translate(0)"><rect width="284.661" height="0.613" transform="translate(8.434 196.2)" fill="#3f3d56"/><rect width="0.613" height="284.661" transform="translate(30.585 85.586) rotate(-67.078)" fill="#3f3d56"/><rect width="284.661" height="0.613" transform="translate(8.434 84.971)" fill="#3f3d56"/><path d="M500.773,227.358a98.687,98.687,0,0,1-28.72,69.9q-1.512,1.521-3.092,2.972-1.9,1.756-3.9,3.4c-.254.211-.509.42-.766.625a96.133,96.133,0,0,1-17.025,11.04c-.358.181-.717.362-1.079.539-.573.282-1.152.558-1.731.827a95.351,95.351,0,0,1-68.407,4.642c-39.549-12.275-68.319-49.692-68.319-93.947,0-54.239,43.214-98.206,96.521-98.206S500.773,173.12,500.773,227.358Z" transform="translate(-246.287 -129.059)" fill="#006c54"/><path d="M610.438,326.033l.077,0-.3-.664a18.528,18.528,0,0,0-1.241-2.724l-8.866-19.467a3.506,3.506,0,0,0-3.249-2.052l-11.228.187a3.506,3.506,0,0,0-3.268,2.4l-7.059,21.2a18.5,18.5,0,0,0-.6,1.814l-.24.72.056,0a18.646,18.646,0,1,0,35.924-1.406Z" transform="translate(-430.982 -248.334)" fill="#3f3d56"/><rect width="19.635" height="0.405" transform="translate(154.997 77.05) rotate(-79.634)" fill="#006c54"/><rect width="0.405" height="19.635" transform="translate(162.38 57.752) rotate(-12.264)" fill="#006c54"/><path d="M607,270.166l14.388-.24a.405.405,0,1,1,.014.811l-14.388.24a.405.405,0,0,1-.014-.811Z" transform="translate(-453.58 -226.698)" fill="#3f3d56"/><path d="M607.5,280.081l14.388-.24a.405.405,0,1,1,.013.811l-14.388.24a.405.405,0,1,1-.013-.811Z" transform="translate(-453.924 -233.574)" fill="#3f3d56"/><path d="M607.994,290l14.388-.24a.405.405,0,1,1,.014.811l-14.388.24a.405.405,0,0,1-.013-.811Z" transform="translate(-454.268 -240.451)" fill="#3f3d56"/><path d="M619.661,260.882c-2.854.048-5.141,1.677-5.108,3.639l10.335-.172C624.854,262.386,622.514,260.834,619.661,260.882Z" transform="translate(-459.093 -220.423)" fill="#3f3d56"/><path d="M617.4,389.614a2.5,2.5,0,0,1,1.516.648c.107.089.212.181.317.275a3.166,3.166,0,0,0,1.194.781c.99.27,1.968-.513,2.793-1.314l.283.291c-.907.882-1.994,1.739-3.182,1.415a3.514,3.514,0,0,1-1.356-.869c-.1-.09-.2-.18-.308-.266a1.731,1.731,0,0,0-1.574-.491,1.974,1.974,0,0,0-.631.487,3.781,3.781,0,0,1-.438.394,1.985,1.985,0,0,1-2.2.065,3.92,3.92,0,0,1-.344-.258,1.009,1.009,0,0,0-1.64.087,2.1,2.1,0,0,1-1.147.57h-.044c-.808.013-1.32-.794-1.637-1.409l.36-.186c.431.835.846,1.216,1.3,1.188a1.783,1.783,0,0,0,.918-.484,1.383,1.383,0,0,1,2.145-.083,3.585,3.585,0,0,0,.308.232,1.593,1.593,0,0,0,1.742-.052,3.425,3.425,0,0,0,.39-.353,2.3,2.3,0,0,1,.77-.578A1.331,1.331,0,0,1,617.4,389.614Z" transform="translate(-455.245 -309.711)" fill="#006c54"/><rect width="0.421" height="40.441" transform="translate(160.603)" fill="#3f3d56"/><path d="M1015.474,314.493c-2.568,9.494-11.366,15.375-11.366,15.375s-4.633-9.513-2.065-19.008,11.366-15.375,11.366-15.375S1018.041,305,1015.474,314.493Z" transform="translate(-727.312 -244.425)" fill="#006c54"/><path d="M969.617,314.493c2.568,9.494,11.366,15.375,11.366,15.375s4.633-9.513,2.065-19.008-11.366-15.375-11.366-15.375S967.049,305,969.617,314.493Z" transform="translate(-704.823 -244.425)" fill="#006c54"/><path d="M943.82,334.023c7.047,6.861,7.909,17.407,7.909,17.407s-10.566-.577-17.614-7.438-7.909-17.407-7.909-17.407S936.772,327.162,943.82,334.023Z" transform="translate(-675.251 -265.995)" fill="#3f3d56"/><path d="M1017.409,334.023c-7.048,6.861-7.909,17.407-7.909,17.407s10.566-.577,17.614-7.438,7.909-17.407,7.909-17.407S1024.456,327.162,1017.409,334.023Z" transform="translate(-733.022 -265.995)" fill="#3f3d56"/><path d="M196.471,676.493c-2.568,9.495-11.366,15.375-11.366,15.375s-4.633-9.513-2.065-19.008,11.366-15.375,11.366-15.375S199.039,667,196.471,676.493Z" transform="translate(-159.265 -495.502)" fill="#006c54"/><path d="M150.617,676.493c2.568,9.495,11.366,15.375,11.366,15.375s4.633-9.513,2.065-19.008-11.366-15.375-11.366-15.375S148.049,667,150.617,676.493Z" transform="translate(-136.778 -495.502)" fill="#006c54"/><path d="M124.82,696.023c7.048,6.861,7.909,17.407,7.909,17.407s-10.566-.577-17.614-7.438-7.909-17.407-7.909-17.407S117.773,689.162,124.82,696.023Z" transform="translate(-107.207 -517.072)" fill="#3f3d56"/><path d="M198.409,696.023c-7.048,6.861-7.909,17.407-7.909,17.407s10.566-.577,17.614-7.438,7.909-17.407,7.909-17.407S205.456,689.162,198.409,696.023Z" transform="translate(-164.978 -517.072)" fill="#3f3d56"/><circle cx="5.894" cy="5.894" r="5.894" transform="translate(199.51 81.493)" fill="#2f2e41"/><path d="M754.06,392.452a5.893,5.893,0,0,1,5.262-5.859,5.894,5.894,0,1,0,0,11.718A5.894,5.894,0,0,1,754.06,392.452Z" transform="translate(-554.972 -307.591)" fill="#2f2e41"/><path d="M758.192,414.036s-.915,4.21,4.8,5.894Z" transform="translate(-558.682 -326.65)" fill="#006c54"/><circle cx="19.786" cy="19.786" r="19.786" transform="translate(188.055 87.847)" fill="#2f2e41"/><path d="M751.584,686.753c-.254.211-.509.42-.766.625a96.134,96.134,0,0,1-17.024,11.04c-.359.181-.717.362-1.079.539-.573.282-1.152.558-1.731.827l-10.142-3.38.116-2.43v-.009l.441-9.266.15-3.168Z" transform="translate(-532.813 -512.18)" fill="#a0616a"/><path d="M727.908,727.013c-.573.282-1.152.558-1.731.827a94.029,94.029,0,0,1-12.229,4.71.688.688,0,0,1-.037-.19l2.123-10.378.116.049Z" transform="translate(-528.007 -540.236)" fill="#2f2e41"/><circle cx="13.103" cy="13.103" r="13.103" transform="translate(189.799 102.42)" fill="#a0616a"/><path d="M750.35,508.171s2.125,10.624,6.02,13.1l-21.6,25.5-8.145-7.791,6.02-10.624s6.729-3.9,4.6-9.208Z" transform="translate(-536.824 -391.94)" fill="#a0616a"/><path d="M828.087,575.422a98.328,98.328,0,0,1-13.4,16.779c-.218-4.75-.689-8.666-1.615-9.824a.009.009,0,0,1-.006,0l-11.328-3.539s2.479-23.373,8.5-24.434c0,0,.873.178,2.231.588,4.376,1.318,13.77,5.031,15.122,12.866A43.487,43.487,0,0,1,828.087,575.422Z" transform="translate(-588.924 -424.005)" fill="#a0616a"/><path d="M533.276,574.042s-10.624-.354-17.352,8.145-23.019,14.874-23.019,14.874L452.18,613s-7.437-13.1-12.041-8.5,8.5,16.29,14.519,14.874,42.5-12.395,42.5-12.395l29.039-13.1Z" transform="translate(-337.457 -437.626)" fill="#a0616a"/><path d="M745.88,578.064l-1.477,12.8q-1.9,1.756-3.9,3.4c-.254.211-.509.42-.766.625-10.225-3.135-26.248-2.785-29.419-2.678-.362.009-.558.018-.558.018l-.352-7.437a6.188,6.188,0,0,1-4.544-6.324c-.052-4.933,3.481-10.676,3.481-10.676.634-.634,5.375-9.621,6.355-11.484.113-.218.178-.337.178-.337l4.25-1.06s-.012.034-.037.1c-.38,1.063-3.683,10.682,2,11.016,5.6.331,17.766-15.382,19.442-17.585l.193-.254,4.605,2.479c-.018.006-.037.009-.055.015-2.813.781-5.417,7.556-5.417,7.556-7.345,12.943,5.693,19.666,6.015,19.828A.009.009,0,0,0,745.88,578.064Z" transform="translate(-521.729 -419.691)" fill="#d0cde1"/><path d="M743.121,455.666c-6.975,0-12.629,3.3-12.629,7.367,0,1.821,1.137,3.484,3.013,4.77l2.431-1.762-.661,2.76c.274.127.554.25.846.364l3.632-4.237v5.206a21.213,21.213,0,0,0,3.368.267c6.975,0,12.629-3.3,12.629-7.367S750.1,455.666,743.121,455.666Z" transform="translate(-539.507 -355.523)" fill="#2f2e41"/><circle cx="5.894" cy="5.894" r="5.894" transform="translate(223.591 90.7)" fill="#2f2e41"/><path d="M832.652,422.5a5.893,5.893,0,0,1,5.261-5.859,5.965,5.965,0,0,0-.631-.035,5.894,5.894,0,1,0,.631,11.753A5.894,5.894,0,0,1,832.652,422.5Z" transform="translate(-609.482 -328.433)" fill="#2f2e41"/><path d="M836.782,444.085s-.915,4.21,4.8,5.894Z" transform="translate(-613.191 -347.491)" fill="#006c54"/><ellipse cx="1.023" cy="2.302" rx="1.023" ry="2.302" transform="translate(215.513 112.158)" fill="#a0616a"/><path d="M398.673,495.64,383.145,499.4l-.051.012-1.688,1.528-.486.439-1.042-.189-1.844-.333,1.285-4.336.241-8.271-.883-5.059,4.9-3.373S393.132,479.258,398.673,495.64Z" transform="translate(-295.049 -372.275)" fill="#d0cde1"/><path d="M383.145,499.407c-.21.449.23.153-.01.614l-2.248.723-1.007.454-1.844-.333,1.285-4.336.241-8.271-.883-5.059,4.9-3.373S388.834,487.271,383.145,499.407Z" transform="translate(-295.049 -372.28)" opacity="0.1"/><path d="M423.127,492.667s-20.4,9.476-28.668,10.921-7.549,9.717-7.549,9.717l46.335-7.227S431.639,498.61,423.127,492.667Z" transform="translate(-301.193 -381.187)" fill="#d0cde1"/><path d="M375.816,486.412a28.508,28.508,0,0,1-.4,19.273l4.577,2.088,1.767-2.088.04-.2-4.858-.442s4.015-10.761.723-18.229C377.663,486.813,376.94,485.207,375.816,486.412Z" transform="translate(-293.231 -376.538)" fill="#006c54"/><path d="M443.1,573.859c-18.068-4.015-34.892,4.3-34.892,4.3l-.046-.041-6.7-5.982-26.179-42.721,6.384.04c17.747-10.6,42.722-9.155,42.722-9.155C435.149,532.5,443.1,573.859,443.1,573.859Z" transform="translate(-293.14 -400.304)" fill="#3f3d56"/><path d="M408.162,598.9l-6.7-5.982-26.179-42.721,6.384.04S407.112,583.839,408.162,598.9Z" transform="translate(-293.14 -421.085)" opacity="0.1"/><ellipse cx="10.359" cy="6.585" rx="10.359" ry="6.585" transform="translate(104.197 134.923) rotate(-17.052)" fill="#d0cde1"/><circle cx="5.822" cy="5.822" r="5.822" transform="translate(2.694 79.102)" fill="#3f3d56"/><circle cx="5.822" cy="5.822" r="5.822" transform="translate(287.049 190.944)" fill="#3f3d56"/><circle cx="4.596" cy="4.596" r="4.596" transform="translate(29.353 80.941)" fill="#006c54"/><circle cx="4.596" cy="4.596" r="4.596" transform="translate(288.274 80.941)" fill="#006c54"/><circle cx="4.596" cy="4.596" r="4.596" transform="translate(3.92 191.557)" fill="#006c54"/></g></svg>